<?xml version="1.0" encoding="utf-8"?>
<svg viewBox="0 0 25 18" xmlns="http://www.w3.org/2000/svg" xmlns:bx="https://boxy-svg.com">
  <style>
    .line {stroke: black; fill: none; stroke-linecap: round; stroke-width: 3px}
	.wing {fill: white; fill-opacity: 0.25}
  </style>
  <g transform="matrix(0.073664, 0, 0, 0.073664, -8.463679, 8.844322)">
    <title>The Man Himself</title>
    <path class="line" d="M 372.739 84.861 C 373.105 88.001 373.74 90.615 374.619 92.768 C 377.308 99.351 382.285 101.615 388.855 101.378" transform="matrix(-1, 0, 0, -1, 761.594025, 186.255653)">
      <title>Left Front Leg</title>
    </path>
    <path class="line wing" d="M 363.131 -99.829 C 360.28 -88.899 338.922 -5.531 284.079 -37.701 C 228.165 -70.499 336.775 -104.814 358.161 -110.162" transform="matrix(-0.813792, 0.581157, -0.581157, -0.813792, 531.771807, -310.909675)">
      <title>Left Wing</title>
    </path>
    <path d="M 304.312 -44.554 C 324.545 -38.582 342.082 -30.446 356.912 -20.135 C 371.732 -9.833 382.414 2.156 388.945 15.832 C 395.465 29.515 396.268 44.49 391.343 60.762 C 386.418 77.036 377.442 89.097 364.399 96.945 C 351.363 104.802 335.794 108.987 317.688 109.52 C 299.585 110.051 280.407 107.327 260.174 101.348 C 239.841 95.347 222.224 87.23 207.312 77.009 C 192.411 66.788 181.712 54.863 175.226 41.243 C 168.732 27.629 167.955 12.639 172.908 -3.726 C 177.833 -20.007 186.799 -32.095 199.807 -40.006 C 212.806 -47.918 228.394 -52.158 246.562 -52.717 C 264.729 -53.276 283.979 -50.561 304.312 -44.554 Z" style="fill-rule: nonzero; fill: #83254f;" transform="matrix(-1, 0, 0, -1, 564.215729, 56.796394)">
      <title>Body</title>
    </path>
    <path class="line wing" d="M 274.212 -11.27 C 271.361 -22.2 250.003 -105.568 195.16 -73.398 C 139.246 -40.6 247.856 -6.285 269.242 -0.937">
      <title>Right Wing</title>
    </path>
    <g>
      <title>Face</title>
      <ellipse cx="321.215" cy="48.523" rx="7.703" ry="7.703">
        <title>Right Eye</title>
      </ellipse>
      <ellipse cx="366.636" cy="40.543" rx="7.703" ry="7.703" bx:origin="1.697 0.316">
        <title>Left Eye</title>
      </ellipse>
      <path class="line" d="M 339.732 60.078 C 343.337 62.386 347.076 62.055 349.077 59.374 C 351.538 61.504 356.239 61.178 358.005 58.533">
        <title>Mouth</title>
      </path>
    </g>
    <g>
      <title>Right Legs</title>
      <path class="line" d="M 266.056 118.456 C 266.422 115.316 267.057 112.702 267.936 110.549 C 270.625 103.966 275.602 101.702 282.172 101.939">
        <title>Front</title>
      </path>
      <path class="line" d="M 226.753 102.005 C 227.119 98.865 227.754 96.251 228.633 94.098 C 231.322 87.515 236.299 85.251 242.869 85.488">
        <title>Mid</title>
      </path>
      <path class="line" d="M 195.716 86.984 C 196.082 83.844 196.717 81.23 197.596 79.077 C 200.285 72.494 205.262 70.23 211.832 70.467" transform="matrix(0.965356, 0.260935, -0.260935, 0.965356, 27.599546, -50.444734)">
        <title>Back</title>
      </path>
    </g>
  </g>
</svg>